:SAMPLES-PER-SECOND 30
:FULLY-SPECIFIED
:DEGREES
178
root  12.712 28.3079 -1.4912 -112.555 -85.8123 102.428
RightUpLeg  -34.8184 2.60999 -33.2627
RightLeg  75.6723 0.306962 0.185691
RightFoot  -20.2465 2.35703 31.3066
RightToes  -5.28226e-011 1.30204e-014 -6.03759e-014
Spine  38.4975 -0.544834 0.295543
Spine1  -2.53903 0.314197 -4.06793
HEad  -30.2451 8.80158 -6.72974
LeftShoulder1  0.675349 0.910805 -19.616
LeftArm  -19.5273 14.8988 -30.8304
LeftForeArm  -45.442 -31.4226 -9.03194
LeftHand  -0.129849 4.66352 20.2023
RightShoulder  1.40504 2.12083 18.4358
RightArm  -35.0805 -22.8728 27.4032
RightForeArm  -32.8905 42.304 11.8855
RightHand  -0.755503 -1.39143 -21.7656
LeftUpLeg  -20.0156 -5.78932 35.7221
LeftLeg  66.6135 -5.25796 -12.4315
LeftFoot  -22.337 -4.0145 -41.407
LeftToes  -2.75829e-010 5.07641e-011 -5.51782e-011
179
root  12.7223 28.3966 -0.66126 -38.0031 -84.5438 27.2984
RightUpLeg  -29.4001 2.98289 -34.1086
RightLeg  73.3999 -0.828504 -4.09513
RightFoot  -19.3306 2.26063 33.2668
RightToes  -5.28226e-011 1.30204e-014 -6.03759e-014
Spine  36.7249 0.866488 4.63241
Spine1  -0.0448526 3.48688 -6.04004
HEad  -29.7934 -3.41973 -1.02935
LeftShoulder1  1.10665 -0.978159 -18.1241
LeftArm  -13.8863 -4.2661 -33.8691
LeftForeArm  -45.465 -17.1407 -7.71775
LeftHand  0.122587 5.9653 25.2642
RightShoulder  1.7879 2.56324 23.4026
RightArm  -31.0111 -40.8527 22.9443
RightForeArm  -42.6781 40.4407 11.6122
RightHand  -0.79719 -1.36203 -22.8004
LeftUpLeg  -22.7239 -11.5622 32.8925
LeftLeg  66.9445 -3.32499 -7.88251
LeftFoot  -27.1602 -5.52289 -39.4268
LeftToes  -2.75829e-010 5.07641e-011 -5.51782e-011
180
root  12.5394 28.9646 -0.103326 -19.9447 -81.2011 8.38571
RightUpLeg  -23.7802 5.62785 -32.4936
RightLeg  70.0154 -2.99905 -9.907
RightFoot  -18.4845 2.2157 36.7324
RightToes  -5.28226e-011 1.30204e-014 -6.03759e-014
Spine  34.8655 2.2741 -0.088494
Spine1  0.776587 2.15442 -0.520728
HEad  -27.5294 -4.46031 1.51811
LeftShoulder1  1.19365 -1.79943 -15.601
LeftArm  -13.815 -3.65147 -36.1657
LeftForeArm  -42.3058 -17.7896 -8.44733
LeftHand  0.196271 6.20373 27.4188
RightShoulder  1.7185 2.09158 24.5987
RightArm  -26.8051 -46.6558 28.4883
RightForeArm  -45.6366 39.5878 11.3887
RightHand  -0.712753 -1.99068 -24.0525
LeftUpLeg  -21.7123 -12.7536 31.9588
LeftLeg  63.7867 -3.76097 -7.58308
LeftFoot  -30.103 -6.14576 -37.0302
LeftToes  -2.75829e-010 5.07641e-011 -5.51782e-011
181
root  12.3035 30.0224 0.39947 -6.48605 -81.6393 -5.68799
RightUpLeg  -21.299 8.39681 -29.7703
RightLeg  66.2858 -5.09026 -13.2067
RightFoot  -11.7564 0.0484291 39.4519
RightToes  -5.28226e-011 1.30204e-014 -6.03759e-014
Spine  33.2757 2.31549 -9.57036
Spine1  -0.252713 -2.3641 8.17526
HEad  -23.2927 5.26768 1.12358
LeftShoulder1  0.912785 -1.06296 -12.9996
LeftArm  -10.9987 11.9796 -35.7222
LeftForeArm  -44.678 -28.3218 -7.74452
LeftHand  0.0570535 5.65023 25.8583
RightShoulder  1.26809 1.13287 21.0973
RightArm  -26.8096 -45.2344 39.5907
RightForeArm  -39.6269 42.0691 12.1162
RightHand  -0.685319 -2.23179 -24.8805
LeftUpLeg  -17.9117 -8.95711 32.7994
LeftLeg  59.0974 -5.59688 -9.44887
LeftFoot  -29.9343 -5.83781 -35.6364
LeftToes  -2.75829e-010 5.07641e-011 -5.51782e-011
182
root  12.249 31.6326 0.931947 -8.12814 -86.7458 -3.56815
RightUpLeg  -24.3223 9.42179 -26.8542
RightLeg  62.1446 -5.84718 -12.4223
RightFoot  4.86046 -4.73497 34.0941
RightToes  -5.28226e-011 1.30204e-014 -6.03759e-014
Spine  31.574 1.15105 -16.4066
Spine1  -2.11756 -6.03139 14.8054
HEad  -19.4172 18.9687 0.183798
LeftShoulder1  1.01418 -1.41706 -13.5894
LeftArm  -15.3971 29.7129 -32.3347
LeftForeArm  -45.6734 -33.7892 -9.39476
LeftHand  0.0992042 5.86467 24.6897
RightShoulder  0.810339 -0.206083 18.0944
RightArm  -25.8986 -40.553 49.1689
RightForeArm  -35.4572 42.6693 12.2055
RightHand  -0.684776 -2.34422 -25.7535
LeftUpLeg  -12.3892 -2.53408 34.9788
LeftLeg  52.8059 -7.46408 -9.94657
LeftFoot  -26.1149 -4.67636 -36.1717
LeftToes  -2.75829e-010 5.07641e-011 -5.51782e-011
183
root  12.3711 33.6179 1.16561 103.585 -83.6146 -113.902
RightUpLeg  -31.6544 8.73177 -22.9116
RightLeg  58.0905 -5.68948 -10.1877
RightFoot  25.0787 -6.73729 20.7947
RightToes  -5.28226e-011 1.30204e-014 -6.03759e-014
Spine  29.4671 -0.00720547 -21.9957
Spine1  -4.03666 -8.23779 19.6375
HEad  -15.5398 33.7023 0.632034
LeftShoulder1  1.43507 -3.24078 -14.4418
LeftArm  -15.5589 43.3491 -30.7082
LeftForeArm  -54.6169 -26.3775 -8.24305
LeftHand  0.192134 6.4166 22.5052
RightShoulder  0.259029 -2.33783 15.7227
RightArm  -16.6497 -33.0798 56.1751
RightForeArm  -37.7167 36.9601 10.3157
RightHand  -0.850017 -1.8651 -27.525
LeftUpLeg  -4.78571 3.79275 37.7173
LeftLeg  42.5488 -8.78832 -8.23341
LeftFoot  -19.034 -2.54542 -38.3697
LeftToes  -2.75829e-010 5.07641e-011 -5.51782e-011
184
root  12.5326 35.7241 1.09511 142.784 -77.931 -151.609
RightUpLeg  -39.2375 6.95889 -17.7966
RightLeg  55.0225 -6.96873 -10.9273
RightFoot  36.3469 -4.97013 11.583
RightToes  -5.28226e-011 1.30204e-014 -6.03759e-014
Spine  27.7945 -2.06577 -29.3526
Spine1  -6.08397 -11.4389 25.2576
HEad  -9.40438 48.4192 3.40732
LeftShoulder1  1.96863 -5.55847 -14.8064
LeftArm  -12.6115 55.1048 -30.7962
LeftForeArm  -55.9015 -10.7794 -8.25667
LeftHand  0.067459 5.88483 17.7222
RightShoulder  -0.0967281 -3.92752 14.0897
RightArm  -0.210534 -25.4274 62.071
RightForeArm  -41.7812 28.6855 7.97492
RightHand  -1.25254 -0.528952 -29.4976
LeftUpLeg  4.11174 8.30616 39.206
LeftLeg  28.1227 -7.58741 -3.86763
LeftFoot  -8.70763 1.00296 -39.9767
LeftToes  -2.75829e-010 5.07641e-011 -5.51782e-011
185
root  12.7248 37.7145 1.0989 148.454 -73.9506 -155.831
RightUpLeg  -44.8387 4.21255 -13.5644
RightLeg  52.3358 -9.5858 -13.3848
RightFoot  37.0597 -4.74696 11.1571
RightToes  -5.28226e-011 1.30204e-014 -6.03759e-014
Spine  27.9089 -5.37926 -35.7507
Spine1  -8.33535 -15.7683 30.4198
HEad  -4.2166 57.3436 5.59371
LeftShoulder1  2.59013 -7.20849 -17.5844
LeftArm  -6.53445 62.9284 -27.7414
LeftForeArm  -45.7596 2.3725 -10.1536
LeftHand  0.00114869 5.47602 16.2586
RightShoulder  -0.0198394 -3.57529 14.0628
RightArm  9.90757 -23.7436 65.2322
RightForeArm  -41.4555 26.8692 7.53359
RightHand  -1.53802 0.547754 -29.6631
LeftUpLeg  10.9984 13.4466 38.41
LeftLeg  13.731 -3.35259 1.68349
LeftFoot  4.31427 5.34733 -38.106
LeftToes  -2.75829e-010 5.07641e-011 -5.51782e-011
186
root  12.9925 39.3279 1.33704 148.164 -73.212 -154.205
RightUpLeg  -47.8074 0.902814 -12.2199
RightLeg  47.4074 -10.0468 -11.866
RightFoot  35.8164 -6.76125 15.9975
RightToes  -5.28226e-011 1.30204e-014 -6.03759e-014
Spine  29.5684 -8.23055 -37.7959
Spine1  -9.9536 -19.0096 31.8363
HEad  -8.52738 56.6913 0.738685
LeftShoulder1  2.7547 -7.32193 -18.9166
LeftArm  -4.5969 64.1455 -23.4338
LeftForeArm  -36.7895 6.99224 -10.0028
LeftHand  0.120574 6.28967 17.2774
RightShoulder  0.0438156 -3.27721 13.6813
RightArm  5.77891 -27.1698 65.3835
RightForeArm  -34.2211 32.1183 8.70338
RightHand  -1.31035 0.127941 -27.152
LeftUpLeg  13.463 19.96 36.8704
LeftLeg  4.71303 2.43232 4.29216
LeftFoot  16.4569 8.16737 -32.6167
LeftToes  -2.75829e-010 5.07641e-011 -5.51782e-011
187
root  13.3376 40.4622 1.76478 140.684 -73.7148 -145.907
RightUpLeg  -47.6451 -1.38739 -13.2496
RightLeg  39.2765 -7.77311 -7.07923
RightFoot  36.1234 -7.65185 17.8976
RightToes  -5.28226e-011 1.30204e-014 -6.03759e-014
Spine  30.8822 -9.9135 -34.7234
Spine1  -9.11669 -20.2822 29.3166
HEad  -18.8957 50.0679 -7.17927
LeftShoulder1  2.39076 -7.04982 -15.9142
LeftArm  -10.3082 61.3104 -23.0377
LeftForeArm  -32.5295 6.23938 -6.79732
LeftHand  -0.00232591 5.43185 16.5542
RightShoulder  -0.113843 -4.06266 12.3112
RightArm  0.207316 -28.3165 65.0994
RightForeArm  -28.1002 36.6587 9.78381
RightHand  -0.898008 -1.19547 -24.7076
LeftUpLeg  12.3018 19.7246 35.2288
LeftLeg  2.08052 13.6219 3.40062
LeftFoot  23.5376 8.71449 -27.6886
LeftToes  -2.75829e-010 5.07641e-011 -5.51782e-011
188
root  13.6944 41.1494 2.23039 127.219 -73.6111 -132.04
RightUpLeg  -44.4276 -2.24298 -15.2002
RightLeg  29.7975 -5.58295 -3.61227
RightFoot  34.7221 -6.48501 15.7659
RightToes  -5.28226e-011 1.30204e-014 -6.03759e-014
Spine  30.4175 -10.6068 -28.6523
Spine1  -5.90413 -19.8811 25.6479
HEad  -25.7724 43.2772 -11.2582
LeftShoulder1  2.15644 -7.15494 -13.2337
LeftArm  -13.8079 55.313 -24.516
LeftForeArm  -31.4558 5.61578 -5.84307
LeftHand  -0.273169 3.45712 15.7601
RightShoulder  -0.056995 -3.7869 12.1961
RightArm  -0.387485 -25.6645 62.9663
RightForeArm  -24.9106 36.4771 9.59099
RightHand  -0.864771 -1.44099 -25.0839
LeftUpLeg  9.80757 21.0397 35.9385
LeftLeg  2.24625 18.6305 3.12998
LeftFoot  26.6949 8.63097 -25.1898
LeftToes  -2.75829e-010 5.07641e-011 -5.51782e-011
189
root  13.9729 41.5116 2.68352 110.815 -73.769 -115.019
RightUpLeg  -38.8997 -4.99064 -17.8376
RightLeg  20.8206 -6.06469 -2.72504
RightFoot  32.8879 -6.21268 15.8075
RightToes  -5.28226e-011 1.30204e-014 -6.03759e-014
Spine  28.6198 -10.4637 -22.1857
Spine1  -2.92105 -18.3498 22.8613
HEad  -26.0778 37.7311 -11.3517
LeftShoulder1  1.96475 -6.00541 -13.7325
LeftArm  -11.5223 42.5737 -22.5377
LeftForeArm  -28.4592 4.0631 -8.21644
LeftHand  -0.329518 3.1569 17.0473
RightShoulder  0.530814 -0.956825 13.9239
RightArm  0.0375198 -26.6421 57.2125
RightForeArm  -24.9228 38.5849 10.3234
RightHand  -1.03232 -0.945438 -26.6914
LeftUpLeg  5.23254 21.6157 35.7857
LeftLeg  3.63212 18.1862 4.39409
LeftFoot  28.3204 8.5382 -23.879
LeftToes  -2.75829e-010 5.07641e-011 -5.51782e-011
190
root  14.1032 41.5263 3.21147 94.1599 -75.141 -97.4368
RightUpLeg  -32.6037 -12.058 -21.5235
RightLeg  14.1133 -6.13181 -2.04998
RightFoot  33.3585 -8.4884 21.0226
RightToes  -5.28226e-011 1.30204e-014 -6.03759e-014
Spine  25.2662 -8.47679 -14.4947
Spine1  -1.19989 -14.0078 18.0502
HEad  -21.4308 26.9517 -7.62927
LeftShoulder1  1.28616 -2.50688 -14.5109
LeftArm  -10.9135 19.6489 -22.4254
LeftForeArm  -30.8133 4.53885 -10.6283
LeftHand  0.0127168 5.46343 20.8765
RightShoulder  1.32111 2.18279 16.5832
RightArm  -7.08175 -37.1042 51.0541
RightForeArm  -24.5311 46.9988 13.6508
RightHand  -0.974033 -1.04374 -25.6614
LeftUpLeg  -0.260879 19.7883 33.0533
LeftLeg  6.71625 14.4621 5.79705
LeftFoot  26.224 8.2595 -24.4985
LeftToes  -2.75829e-010 5.07641e-011 -5.51782e-011
191
root  14.0877 41.1044 3.76694 88.4241 -77.621 -91.2317
RightUpLeg  -28.6262 -17.9113 -26.4196
RightLeg  12.5957 -4.80669 -1.68078
RightFoot  35.0281 -9.87887 23.4414
RightToes  -5.28226e-011 1.30204e-014 -6.03759e-014
Spine  20.9079 -3.20739 -4.23577
Spine1  -0.559707 -4.70038 7.21773
HEad  -17.1698 7.63234 -1.82774
LeftShoulder1  0.375082 1.79439 -15.3572
LeftArm  -15.6006 -7.0252 -30.1082
LeftForeArm  -38.9581 3.79504 -10.3948
LeftHand  0.350991 6.99179 26.1403
RightShoulder  1.80192 3.0979 21.1528
RightArm  -18.8849 -50.7924 46.4455
RightForeArm  -22.8849 53.2429 16.6191
RightHand  -0.884846 -0.916177 -22.8687
LeftUpLeg  -2.3683 15.6584 30.0507
LeftLeg  10.9526 11.0939 5.11186
LeftFoot  18.5146 7.44664 -27.9706
LeftToes  -2.75829e-010 5.07641e-011 -5.51782e-011
192
root  14.079 40.3275 4.17009 108.105 -79.6045 -111.692
RightUpLeg  -29.7291 -13.6556 -31.5213
RightLeg  18.7724 -5.80441 -2.39444
RightFoot  35.9095 -7.36464 17.3247
RightToes  -5.28226e-011 1.30204e-014 -6.03759e-014
Spine  19.7678 2.70574 3.78396
Spine1  -1.81032 4.7551 -5.12283
HEad  -15.5285 -7.20564 1.8167
LeftShoulder1  -0.138922 4.17477 -15.2359
LeftArm  -23.1024 -14.4466 -42.8008
LeftForeArm  -41.0227 -8.28627 -7.82342
LeftHand  0.162156 5.98502 29.2105
RightShoulder  1.75418 2.18987 24.751
RightArm  -19.7951 -52.9784 38.422
RightForeArm  -26.253 46.9812 13.8259
RightHand  -1.0716 0.195706 -22.1275
LeftUpLeg  0.554559 14.5691 28.4102
LeftLeg  13.9926 7.33511 3.35634
LeftFoot  7.98657 5.43469 -31.4031
LeftToes  -2.75829e-010 5.07641e-011 -5.51782e-011
